<?xml version="1.0" encoding="UTF-8"?>
<svg id="Layer_1" xmlns="http://www.w3.org/2000/svg" version="1.1" viewBox="0 0 1370.98 1103.22">
  <!-- Generator: Adobe Illustrator 30.5.1, SVG Export Plug-In . SVG Version: 2.1.4 Build 3)  -->
  <defs>
    <style>
      .st0 {
        fill: #fffbea;
      }

      .st1 {
        fill: #2c2a27;
      }

      .st2 {
        fill: #fdf7e4;
      }

      .st3 {
        fill: #f4d188;
      }

      .st4 {
        fill: #341910;
      }

      .st5 {
        fill: #f3ce85;
      }

      .st6 {
        fill: #a9704a;
      }

      .st7 {
        fill: #6b4a32;
      }

      .st8 {
        fill: #853d1b;
      }

      .st9 {
        fill: #c69b67;
      }

      .st10 {
        fill: #fefae9;
      }

      .st11 {
        fill: #c79c69;
      }

      .st12 {
        fill: #fefae8;
      }

      .st13 {
        fill: #724f35;
      }

      .st14 {
        fill: #fffbe9;
      }
    </style>
  </defs>
  <path class="st1" d="M1369.81,814.67c-6.63,76.9-40.54,145.96-100.09,195.48-40.98,34.08-88.58,57.72-141.16,70.76-53.2,13.19-106.46,20.99-162,21.13l-421.06,1.08c-7.04.02-12.32-6.62-14.29-10.44-2.51-4.88-2.85-12.06.04-17.75,7.5-17.33,23.39-26.29,40.36-33.93,28.5-12.83,58.79-16.16,91.3-16.82-40.55-19.71-77.54-43.04-113.41-69.42l-16.26,31.64c-17.24,33.54-39.2,64.06-67.46,88.87-15.48,12.98-31.35,22.69-50.93,27.95l-155.46-.77c-7.86-.04-14.7-6.89-17.64-11.69-13.64-22.21,36.42-59.96,71.4-65.16l6.66-60.51,1.87-28.89-.36-63.29c-2.95-38.13-4.23-76.98-19.15-112.87l-37.46-69.32c-18.96-35.09-30.89-71.43-34.41-111.68l-.75-71.44c-.05-4.4,3.9-9.42,1.53-14.7-60.89,2.48-121.06-4.52-178.66-24.46-16.56-5.73-30.79-13.38-43.46-24.81-8.38-7.56-13.08-21.99-4.08-31.15l74.29-75.62,19.77-21.59,54.44-62.87c9.11-10.51,18.96-19.22,27.65-30.44,7.89-10.18,2.56-77.49,43.69-153.58,11.75-21.73,25.29-39.04,43.33-56.07,8.74-8.25,22.9-17.89,34.74-8.3,22.86,18.51,32.55,65.13,35.26,97.25l-57.65,58.15,45.54-12.87C360.98,82.72,442.06,14.33,513.5,2.62c9.54-1.56,17.85,1.08,22.21,9.36,7.72,14.65,8.7,46.66,7.88,67.62-2.06,53.02-15.21,103.69-42.88,150.14,6,37.76,23.56,70.15,48.24,98.48,20.97,24.08,60.9,55.69,89.03,67.78l107.96,46.39c30.19,12.97,58.98,24.39,87.84,40.06,44.96,24.41,87.14,50.54,125.28,84.93l51.35,51.41c35.53,35.57,70.98,104.67,89.59,155.74,3.21-45.5,9.25-89.78,31.01-130.14,30.56-56.66,78.48-98.83,134.48-129,22.58-12.17,66.16-30.34,83.38-22.46,6.53,2.99,6.59,14.5,5.78,20.71l-5.24,40.24-.31,58.62,1.64,18.84,14.6,100.62,4.63,41.33c1.61,14.36,1.12,26.61-.15,41.39Z"/>
  <g>
    <path class="st11" d="M662.62,458.32l3.93,3.08c-30.11,68.56-69.63,135.08-115.77,194.77,3.97,3.89,8.02,8.56,12.14,14.02l-1.74,4.53c7.54,3.2,14.18,8.85,19.92,16.95,8.23,5.68,13.92,12.3,17.06,19.87,4.22-1.72,8.98-.1,14.28,4.87,5.17,1.38,8.06,3.96,8.65,7.75l-3.47,8.37c-17.07,14.76-32.89,30.99-46.2,49.27-27.66,42.71-56.67,85.24-87.03,127.59-8.1,12.96-18.17,22.62-30.19,28.97-3.73,4.35-4.18,1.2-4.62-3.57-1.56-29.36-4.39-58.39-8.51-87.1-13.96-57.7-29.31-115.33-49.19-171.23-.27-.76-1.35-1.11-2.51-1.36-1.06-2.85-.23-7.07-4.09-8.89-4.45-4.72-4.17-11.55.84-20.47,54.43-89.26,133.04-247.13,5.08-310.09l-3.53-5.92c26.8-16.75,51.87-36.16,73.52-59.03,9.69,32.77,27.92,59.93,49.59,85.43,39.09,45.99,96.7,80.64,151.82,102.21Z"/>
    <path class="st11" d="M765.21,780.22l78.99.15c4.31-.49,6.19.79,5.66,3.83,1.95-.4,3.9-.71,5.85-.73s3.8-.04,5.35.61c67.81,28.03,129.64,66.33,172.3,126.85,7.21,10.23,16.85,23.96,18.8,35.29-10.51,20.4-23.95,38.49-41.54,53.83-70.35,61.36-157.46,66.93-243.05,32.56-40.75-16.36-76.26-39.19-111.59-65.32-55.69-87.34,9.4-184.55,106.74-191.12l2.49,4.04Z"/>
    <path class="st2" d="M387.69,329.71c34.08,13.3,60.49,38.93,70.66,74.67,14.09,49.5,2.26,96.81-17.33,143.76-13.53,32.43-30.01,62.16-47.59,92.31-5.08,8.71-7.45,17.05-8.13,25.74l-1.45,18.63c-1.48,18.97-1.51,36.63-.34,55.55l2.65,42.88c-27.61-21.39-47.08-48.03-65.2-76.65-17.05-26.93-30-54.59-38.69-84.97-12.38-43.31-.89-85.55,31.05-116.9,16.26-15.96,34.16-28.35,59.17-30.33-13.75-14.9-30.04-25.93-49.44-31.43-13.86-3.93-27.99-1.56-42.15.8-58.54,9.79-137.94,13.21-185.83-22.14,92.29-16.13,179.91-41.7,265.09-77.52l27.53-14.38Z"/>
    <path class="st7" d="M893.72,577.3c4.55,3.36,1.72,6.63-1.82,10.09-56.46,62.45-125.73,114.05-201.97,151.33-.45.38,9.83,3.43,11.44,3.09,16.66-3.47,34.05-9.85,50.34-16.5,63.61-26,106.68-57.57,160.95-97.77,3.51-2.6,7.88-3.71,12.06-4.76,7.35-1.02,11.11-6.69,16.12-12.81,21.58,20.41,41.66,41.04,58.8,65.44l-8.95,9.42c2.66,5.71-8.19,12.18-12.48,7.83-1.84-.23-3.28-.03-5.01.84-30.56,15.34-58.53,29.31-91.48,39.67-64.06,20.14-121.69,20.81-185.57,19.71-17,2.09-38.41,10.12-51.96,20.59l-4.55,7.63c-21.39,13.65-40.09,31.17-55.29,51.48l-7.91,3.88c-1.08-1.55-2.63-1.42-3.43-.06l-23.8,40.53c-28.96,49.33-65.61,109.42-112.49,144.11,9.28-26.13,11.14-51.15,11.44-76.84,1.36-5.36,3.37-7.31,6.02-5.85,22.95-24.56,42.86-51.51,61.83-80.35l44.99-68.39c16.76-25.73,37.2-46.3,60.06-65.46,2.65-3.93,5.46-7.93,9.35-10.72,59.48-42.63,116.33-83.96,161.54-142.9,7.79-12.02,17.12-21.9,27.99-29.62,6.1,1.08,6.68-6.29,9.7-10.59l64.25,40.47c1.83,1.15-.19,5.72-.19,6.5Z"/>
    <path class="st13" d="M1287.01,887.19c-57.73,90.2-161.52,138.15-269.55,143.96,45-28.16,79.23-65.1,101.06-112.82,17.31-37.84,28.08-76.99,33.54-118.47,3.97-30.16,14.75-55.99,36.11-77.86l15.16-15.52c13.42-13.74,29.17-24.32,49.12-29.94.69,14.48-1.39,28.13-3.81,42.49-7.16,36.78-17.69,71.7-31.38,105.91,32.9-21.05,66.4-34.8,105.43-37.24-2.68,36.33-16.19,69.03-35.69,99.49Z"/>
    <path class="st2" d="M119.65,368.04c56.36-64.99,132.42-109.82,217.1-131.79l17.77-46.23,5.42-2.61c25.85-50.81,65.69-92.5,116.12-119.14,4.41-2.33,15.45-5.3,17.24.07,4.58,13.74,1.71,29.19-.12,43.64-9.01,71.28-36.04,115.75-103,144.26-39.92,17-77.5,35.22-111.91,59.32-12.02-13.73-31.67-18.77-48.28-13.65-22.08,6.79-33.21,30.16-23.17,51.01-29.55,19.94-59.62,36.79-92.53,49.67-14.09,5.52-27.24,10.37-43.34,10.85l48.71-45.41Z"/>
    <path class="st12" d="M1032.72,729.89c-57.03,29.85-116.72,40.22-179.46,48.59-2.04.27-4,1.17-5.94,2.26l-82.1-.52c-5.23-.09-9.28,1.72-15.22,2.41-61.49,7.16-116.39,61.45-109.86,126.45,1.91,19.04,8.44,36.33,16.6,53.16,1,2.07.87,3.86-.76,5.05-37.37-27.64-71.78-56.53-103.31-90.67l23.79-40.16c18.11-25.83,40.23-46.73,67.74-62.99,17.48-13.2,41.16-20.43,62.9-21.19,91.68,6,185.03-11.6,266.83-59.1l4.3-.53,12.48-7.83,10.13-7.26,31.88,52.33Z"/>
    <path class="st6" d="M1052.16,946.22c-3.89-1.76-5.16-4.79-6.86-7.74-10.65-18.45-20.89-35.47-35.54-51.18-44.48-47.7-99.86-80.8-159.9-103.1-4.04-2.07-4.77-3.64-2.2-4.71,63.46-5.66,127.31-21.24,185.05-49.59,22.1,44.24,35.43,92.74,36.54,142.41.6,26.8-5.29,51.02-17.09,73.91Z"/>
    <path class="st7" d="M782.14,506.68c-.2,2.46-.48,4.89-1.06,7.25-.57,2.34-1.16,4.61-2.31,6.53-42.06,70.03-101.5,137.59-167.25,186.26-1.81,1.34-4,2.18-6.26,2.99s-4.69,1.37-7.11,1.82c-14.21-10.41-26.69-22.5-36.98-36.83l-1.59-4.22c44.94-40.9,81.87-91.83,116.26-143.56,0,0,3.08-1.97,9.24-5.9,9.42-13.16,18.26-27.42,26.2-43.57l70.86,29.21Z"/>
    <path class="st0" d="M819.97,540.92c-52.82,73.29-121.25,135.64-198.88,183.24-9.48-2.08-16.04-7.56-22.93-12.61,74.91-54.54,137.67-124.76,183.98-204.86l45.98,23.34c-3.35,4-5.77,7.04-8.15,10.9Z"/>
    <path class="st10" d="M924.74,622.78c-64.07,54.73-136.72,98.73-218.14,122.51-9.53,2.78-19.71-4.18-28.2-6.53,78.63-35.66,146.95-85.43,204.54-148.26,4.19-4.57,9.09-7.84,10.79-13.2.47-1.49,5.06-3.85,6.19-2.88l39.75,34.17-14.92,14.2Z"/>
    <path class="st14" d="M685.08,521.04c-30.46,42.57-58.34,88.24-96.66,126.88l-27.24,26.79c-4.29-5.98-10.51-11.25-13.95-19.44,43.87-58.32,80.97-120.87,112.49-187,1.87-3.92,3.04-6.52,2.9-9.95l46.41,18.16-23.94,44.55Z"/>
    <path class="st9" d="M359.94,187.42l-20,52.04c-73.74,23.13-116.09,39.29-175.24,89.98l-45.04,38.6c.26-4.48,3.78-6.17,6.37-9.21l61.61-72.18c42.82-50.16,106.67-93.85,172.31-99.23Z"/>
    <path class="st5" d="M441.08,847.68c.07,2.4-.7,3.11-2.31,2.12-11.66-59.52-28.24-117.89-49.39-174.72,1.49-4.07,4.48-1.39,3.27,1.08,20.86,56.57,36.82,113.46,48.42,171.51Z"/>
    <path class="st3" d="M454.2,938.35c-1.85,1.98-2.88,5.26-6.02,5.85.36-31.57-3.32-63.36-9.41-94.4l2.31-2.12,6.73,41.04c4.14,25.25-.89,47.38,6.4,49.63Z"/>
    <path class="st8" d="M1032.72,729.89c-53.8,30.4-115.4,42.54-176.47,50.65-1.66-1.97-6.06-1.23-6.28.48-.11.85.98,1.2-.1,3.17-6.64-2.47-12.43-2.67-20.81-2.82l-63.84-1.15,69.7-1.36c69.43-3.57,133.69-21.7,197.8-48.96Z"/>
    <path class="st4" d="M978.23,692.67l-21.18,11.02c-54.28,28.24-112.25,45.43-173.66,50.31l-46.95.22c-14.76.07-28.29-2.66-43.22.7-17.25,3.88-33.84,9.59-49.01,18.56.52-7.86,41.54-22.29,55.11-22.21l49.21.27c28.5.16,50.2-.96,78.98-6.44,50.97-9.71,98.36-27.16,143.68-52.37,1.64-.91,3.53-1.42,5.04-1.51.67-.04,1.71.34,2,1.45Z"/>
  </g>
</svg>